<?xml version="1.0" encoding="iso-8859-1"?>
<!-- Uploaded to: SVG Repo, www.svgrepo.com, Generator: SVG Repo Mixer Tools -->
<svg height="800px" width="800px" version="1.1" id="Layer_1" xmlns="http://www.w3.org/2000/svg" xmlns:xlink="http://www.w3.org/1999/xlink" 
	 viewBox="0 0 503.607 503.607" xml:space="preserve">
<g transform="translate(0 1)">
	<g>
		<path style="fill:#FFE100;" d="M369.311,66.148h-18.466c15.108,0,26.859,15.108,26.859,33.574v268.59
			c0,18.466-12.59,33.574-26.859,33.574h18.466c18.466,0,33.574-15.108,33.574-33.574V99.721
			C402.885,81.256,387.777,66.148,369.311,66.148"/>
		<path style="fill:#FFE100;" d="M184.656,485.82h-75.541c-5.036,0-8.393-3.357-8.393-8.393c0-5.036,3.357-8.393,8.393-8.393h75.541
			c5.036,0,8.393,3.357,8.393,8.393C193.049,482.462,189.692,485.82,184.656,485.82z"/>
		<path style="fill:#FFE100;" d="M377.705,485.82h-75.541c-5.036,0-8.393-3.357-8.393-8.393c0-5.036,3.357-8.393,8.393-8.393h75.541
			c5.036,0,8.393,3.357,8.393,8.393C386.098,482.462,382.741,485.82,377.705,485.82z"/>
		<path style="fill:#FFE100;" d="M251.803,452.246c-5.036,0-8.393-3.357-8.393-8.393v-41.967c0-5.036,3.357-8.393,8.393-8.393
			c5.036,0,8.393,3.357,8.393,8.393v41.967C260.197,448.888,256.839,452.246,251.803,452.246z"/>
	</g>
	<path style="fill:#FECC00;" d="M260.197,494.213h-33.574c-9.233,0-16.787-7.554-16.787-16.787v-16.787
		c0-9.233,7.554-16.787,16.787-16.787h33.574c9.233,0,16.787,7.554,16.787,16.787v16.787
		C276.984,486.659,269.43,494.213,260.197,494.213"/>
	<path style="fill:#FFFFFF;" d="M209.836,477.426v-16.787c0-9.233,7.554-16.787,16.787-16.787h-25.18
		c-9.233,0-16.787,7.554-16.787,16.787v16.787c0,9.233,7.554,16.787,16.787,16.787h25.18
		C217.39,494.213,209.836,486.659,209.836,477.426"/>
	<path style="fill:#FFA800;" d="M285.377,443.852h-25.18c9.233,0,16.787,7.554,16.787,16.787v16.787
		c0,9.233-7.554,16.787-16.787,16.787h25.18c9.233,0,16.787-7.554,16.787-16.787v-16.787
		C302.164,451.407,294.61,443.852,285.377,443.852"/>
	<path style="fill:#FFE100;" d="M317.272,66.148v16.787c0,5.036-3.357,8.393-6.715,8.393H176.262c-3.357,0-6.715-3.357-6.715-8.393
		V66.148h-8.393c-14.269,0-26.859,15.108-26.859,33.574v268.59c0,18.466,12.59,33.574,27.698,33.574h163.672
		c15.108,0,26.859-15.108,26.859-33.574V99.721c0-18.466-12.59-33.574-26.859-33.574H317.272z"/>
	<path style="fill:#FFFFFF;" d="M134.295,368.311V99.721c0-18.466,12.59-33.574,26.859-33.574h-18.466
		c-18.466,0-33.574,15.108-33.574,33.574v268.59c0,18.466,15.108,33.574,33.574,33.574h18.466
		C146.885,401.885,134.295,386.777,134.295,368.311"/>
	<g>
		<path style="fill:#FFA800;" d="M344.131,66.148h-18.466c15.108,0,26.859,15.108,26.859,33.574v268.59
			c0,18.466-12.59,33.574-26.859,33.574h18.466c18.466,0,33.574-15.108,33.574-33.574V99.721
			C377.705,81.256,362.597,66.148,344.131,66.148"/>
		<path style="fill:#FFA800;" d="M285.377,40.967V24.18c0-9.233-7.554-16.787-16.787-16.787h-50.361
			c-9.233,0-16.787,7.554-16.787,16.787v16.787h-25.18c-4.197,0-8.393,4.197-8.393,8.393v33.574c0,5.036,3.357,8.393,8.393,8.393
			h134.295c5.036,0,8.393-3.357,8.393-8.393V49.361c0-5.036-3.357-8.393-8.393-8.393H285.377z"/>
	</g>
	<path style="fill:#FECC00;" d="M285.377,40.967V24.18c0-9.233-7.554-16.787-16.787-16.787h-50.361
		c-9.233,0-16.787,7.554-16.787,16.787v16.787h-25.18c-4.197,0-8.393,4.197-8.393,8.393v33.574c0,5.036,3.357,8.393,8.393,8.393
		h109.115c5.036,0,8.393-3.357,8.393-8.393V49.361C293.77,45.164,290.413,40.967,285.377,40.967L285.377,40.967z"/>
	<path d="M344.131,410.279H142.689c-23.502,0-41.967-18.466-41.967-41.967V234.016c0-5.036,3.357-8.393,8.393-8.393
		s8.393,3.357,8.393,8.393v134.295c0,14.269,10.911,25.18,25.18,25.18h201.443c14.269,0,25.18-10.911,25.18-25.18V99.721
		c0-14.269-10.911-25.18-25.18-25.18h-16.787v8.393c0,9.233-7.554,16.787-16.787,16.787H176.262
		c-9.233,0-16.787-7.554-16.787-16.787v-8.393h-16.787c-14.269,0-25.18,10.911-25.18,25.18v67.148c0,5.036-3.357,8.393-8.393,8.393
		s-8.393-3.357-8.393-8.393V99.721c0-23.502,18.466-41.967,41.967-41.967h25.18c5.036,0,8.393,3.357,8.393,8.393v16.787h134.295
		V66.148c0-5.036,3.357-8.393,8.393-8.393h25.18c23.502,0,41.967,18.466,41.967,41.967v268.59
		C386.098,391.813,367.633,410.279,344.131,410.279z"/>
	<path d="M117.508,200.443c0-5.036-3.357-8.393-8.393-8.393s-8.393,3.357-8.393,8.393s3.357,8.393,8.393,8.393
		S117.508,205.479,117.508,200.443"/>
	<path style="fill:#00DA6C;" d="M302.164,242.41c0-46.164-31.895-83.934-71.344-83.934s-71.344,37.77-71.344,83.934
		s31.895,83.934,71.344,83.934S302.164,288.574,302.164,242.41"/>
	<path style="fill:#00AD55;" d="M243.41,158.475c-2.518,0-4.197,0-6.715,0c36.931,3.357,65.469,39.449,65.469,83.934
		s-28.538,79.738-65.469,83.934c2.518,0,4.197,0,6.715,0c46.164,0,83.934-37.77,83.934-83.934S289.574,158.475,243.41,158.475"/>
	<path d="M176.262,99.721c-4.197,0-8.393-1.679-11.751-5.036c-3.357-2.518-5.036-6.715-5.036-11.751V49.361
		c0-9.233,7.554-16.787,16.787-16.787h16.787V24.18c0-14.269,10.911-25.18,25.18-25.18h50.361l0,0c6.715,0,13.43,2.518,17.626,7.554
		c5.036,5.036,7.554,10.911,7.554,17.626v8.393h16.787c9.233,0,16.787,7.554,16.787,16.787v33.574
		c0,9.233-7.554,16.787-16.787,16.787H176.262L176.262,99.721z M176.262,49.361v33.574h134.295V49.361h-25.18
		c-5.036,0-8.393-3.357-8.393-8.393V24.18c0-2.518-0.839-4.197-2.518-5.875c-0.839-1.679-3.357-2.518-5.875-2.518l0,0h-50.361
		c-5.036,0-8.393,3.357-8.393,8.393v16.787c0,5.036-3.357,8.393-8.393,8.393H176.262z"/>
	<path d="M243.41,452.246c-5.036,0-8.393-3.357-8.393-8.393v-41.967c0-5.036,3.357-8.393,8.393-8.393s8.393,3.357,8.393,8.393
		v41.967C251.803,448.888,248.446,452.246,243.41,452.246z"/>
	<path d="M243.41,334.738c-51.2,0-92.328-41.128-92.328-92.328s41.128-92.328,92.328-92.328s92.328,41.128,92.328,92.328
		S294.61,334.738,243.41,334.738z M243.41,166.869c-41.967,0-75.541,33.574-75.541,75.541s33.574,75.541,75.541,75.541
		s75.541-33.574,75.541-75.541S285.377,166.869,243.41,166.869z"/>
	<path d="M285.377,502.607h-83.934c-14.269,0-25.18-10.911-25.18-25.18v-16.787c0-14.269,10.911-25.18,25.18-25.18h83.934
		c14.269,0,25.18,10.911,25.18,25.18v16.787C310.557,491.695,299.646,502.607,285.377,502.607z M201.443,452.246
		c-5.036,0-8.393,3.357-8.393,8.393v16.787c0,5.036,3.357,8.393,8.393,8.393h83.934c5.036,0,8.393-3.357,8.393-8.393v-16.787
		c0-5.036-3.357-8.393-8.393-8.393H201.443z"/>
	<path d="M184.656,477.426h-75.541c-5.036,0-8.393-3.357-8.393-8.393c0-5.036,3.357-8.393,8.393-8.393h75.541
		c5.036,0,8.393,3.357,8.393,8.393C193.049,474.069,189.692,477.426,184.656,477.426z"/>
	<path d="M377.705,477.426h-75.541c-5.036,0-8.393-3.357-8.393-8.393c0-5.036,3.357-8.393,8.393-8.393h75.541
		c5.036,0,8.393,3.357,8.393,8.393C386.098,474.069,382.741,477.426,377.705,477.426z"/>
	<path d="M243.41,292.77c-5.036,0-8.393-3.357-8.393-8.393v-83.934c0-5.036,3.357-8.393,8.393-8.393s8.393,3.357,8.393,8.393v83.934
		C251.803,289.413,248.446,292.77,243.41,292.77z"/>
	<path d="M243.41,292.77c-2.518,0-4.197-0.839-5.875-2.518c-3.357-3.357-3.357-8.393,0-11.751l33.574-33.574
		c3.357-3.357,8.393-3.357,11.751,0c3.357,3.357,3.357,8.393,0,11.751l-33.574,33.574C247.607,291.931,245.928,292.77,243.41,292.77
		z"/>
	<path d="M243.41,292.77c-2.518,0-4.197-0.839-5.875-2.518l-33.574-33.574c-3.357-3.357-3.357-8.393,0-11.751
		c3.357-3.357,8.393-3.357,11.751,0l33.574,33.574c3.357,3.357,3.357,8.393,0,11.751C247.607,291.931,245.928,292.77,243.41,292.77z
		"/>
</g>
</svg>